<svg width="24" height="24" viewBox="0 0 24 24" fill="none" xmlns="http://www.w3.org/2000/svg">
<path d="M14 10H16" stroke="#525059" stroke-linecap="round" stroke-linejoin="round"/>
<path d="M8 10H10" stroke="#525059" stroke-linecap="round" stroke-linejoin="round"/>
<path d="M9 9V11" stroke="#525059" stroke-linecap="round" stroke-linejoin="round"/>
<path d="M15.7508 6L8.55987 6.02432C7.5611 6.02621 6.59479 6.37644 5.82996 7.01375C5.06514 7.65107 4.55049 8.53489 4.37605 9.51063L3.03592 16.3292C2.94987 16.8054 3.01937 17.2963 3.23429 17.7305C3.44921 18.1648 3.79831 18.5195 4.23069 18.7431C4.66307 18.9666 5.15611 19.0473 5.63794 18.9733C6.11976 18.8993 6.56517 18.6746 6.90922 18.3318L10.4393 14.4563L15.7508 14.432C16.8778 14.432 17.9586 13.9878 18.7554 13.1972C19.5523 12.4065 20 11.3341 20 10.216C20 9.09785 19.5523 8.02549 18.7554 7.23484C17.9586 6.44418 16.8778 6 15.7508 6Z" stroke="#525059" stroke-width="2" stroke-linecap="round" stroke-linejoin="round"/>
<path d="M20 10L20.9662 16.4734C21.0472 16.9239 20.9818 17.3883 20.7795 17.7991C20.5773 18.2099 20.2488 18.5455 19.842 18.7569C19.4351 18.9684 18.9712 19.0447 18.5178 18.9747C18.0645 18.9048 17.6454 18.6921 17.3216 18.3679L14 14.6863" stroke="#525059" stroke-width="2" stroke-linecap="round" stroke-linejoin="round"/>
</svg>
