<svg width="32" height="32" viewBox="0 0 32 32" fill="none" xmlns="http://www.w3.org/2000/svg">
<path d="M16 32C24.8366 32 32 24.8366 32 16C32 7.16344 24.8366 0 16 0C7.16344 0 0 7.16344 0 16C0 24.8366 7.16344 32 16 32Z" fill="url(#paint0_linear_1_858)"/>
<path d="M27.4541 16.1954H24.6335C24.6335 10.4472 19.9574 5.78769 14.1888 5.78769C8.4916 5.78769 3.85971 10.3332 3.74635 15.9829C3.62907 21.8229 9.12755 26.8941 14.9891 26.8941H15.7264C20.894 26.8941 27.8202 22.8631 28.9024 17.9517C29.1022 17.0464 28.3845 16.1954 27.4541 16.1954ZM9.99725 16.4515C9.99725 17.2201 9.3663 17.8488 8.59489 17.8488C7.82346 17.8488 7.19255 17.2198 7.19255 16.4515V14.1909C7.19255 13.4222 7.82346 12.7935 8.59489 12.7935C9.3663 12.7935 9.99725 13.4222 9.99725 14.1909V16.4515ZM14.8667 16.4515C14.8667 17.2201 14.2358 17.8488 13.4644 17.8488C12.693 17.8488 12.0621 17.2198 12.0621 16.4515V14.1909C12.0621 13.4222 12.6932 12.7935 13.4644 12.7935C14.2358 12.7935 14.8667 13.4222 14.8667 14.1909V16.4515Z" fill="url(#paint1_linear_1_858)"/>
<defs>
<linearGradient id="paint0_linear_1_858" x1="16" y1="0" x2="16" y2="32" gradientUnits="userSpaceOnUse">
<stop stop-color="#534BB1"/>
<stop offset="1" stop-color="#551BF9"/>
</linearGradient>
<linearGradient id="paint1_linear_1_858" x1="16.3402" y1="5.78769" x2="16.3402" y2="26.8941" gradientUnits="userSpaceOnUse">
<stop stop-color="white"/>
<stop offset="1" stop-color="white" stop-opacity="0.82"/>
</linearGradient>
</defs>
</svg>
