<svg width="24" height="24" viewBox="0 0 24 24" fill="none" xmlns="http://www.w3.org/2000/svg">
<rect width="24" height="24" rx="12" fill="#34343B"/>
<path d="M7.94992 14.3708C8.02341 14.3007 8.1229 14.2614 8.22662 14.2614H17.804C17.8426 14.2614 17.8804 14.2723 17.9125 14.2929C17.9446 14.3134 17.9696 14.3426 17.9844 14.3767C17.9993 14.4108 18.0032 14.4484 17.9957 14.4847C17.9882 14.5209 17.9697 14.5543 17.9425 14.5805L16.0499 16.3903C15.9765 16.4604 15.877 16.4999 15.7732 16.5H6.19588C6.15715 16.5 6.11927 16.489 6.08706 16.4684C6.05484 16.4478 6.02974 16.4186 6.01491 16.3843C6.00008 16.3501 5.99621 16.3124 6.00377 16.276C6.01133 16.2396 6.02999 16.2062 6.05738 16.18L7.94992 14.3708Z" fill="white"/>
<path d="M7.94992 7.60945C8.02341 7.53939 8.1229 7.50004 8.22662 7.5H17.804C17.8427 7.49991 17.8806 7.51083 17.9129 7.53139C17.9451 7.55195 17.9703 7.58121 17.9851 7.61546C17.9999 7.64971 18.0038 7.6874 17.9962 7.72377C17.9886 7.76013 17.9699 7.79351 17.9425 7.81968L16.0499 9.62948C15.9765 9.69965 15.877 9.73911 15.7732 9.73922H6.19588C6.15715 9.73923 6.11927 9.72824 6.08706 9.70765C6.05484 9.68706 6.02974 9.65778 6.01491 9.62353C6.00008 9.58928 5.99621 9.55158 6.00377 9.51522C6.01133 9.47886 6.02999 9.44546 6.05738 9.41925L7.94992 7.60945Z" fill="white"/>
<path d="M16.0499 10.9689C15.9765 10.8987 15.877 10.8592 15.7732 10.8591H6.19588C6.15715 10.8591 6.11927 10.8701 6.08706 10.8907C6.05484 10.9113 6.02974 10.9406 6.01491 10.9748C6.00008 11.0091 5.99621 11.0468 6.00377 11.0831C6.01133 11.1195 6.02999 11.1529 6.05738 11.1791L7.94992 12.9889C8.02341 13.059 8.1229 13.0983 8.22662 13.0983H17.804C17.8427 13.0984 17.8806 13.0874 17.9128 13.0668C17.945 13.0462 17.9701 13.0169 17.985 12.9827C17.9998 12.9484 18.0037 12.9107 17.9961 12.8744C17.9885 12.838 17.9699 12.8046 17.9425 12.7784L16.0499 10.9689Z" fill="white"/>
</svg>
