<svg width="25" height="24" viewBox="0 0 25 24" fill="none" xmlns="http://www.w3.org/2000/svg">
<rect x="0.5" width="24" height="24" rx="12" fill="#34343B"/>
<path d="M5.5 16.0667V7.4311H9.18864C9.73145 7.4311 10.2044 7.52569 10.6073 7.71485C11.0103 7.90401 11.3229 8.1713 11.5449 8.51672C11.7752 8.85392 11.8904 9.26103 11.8904 9.73805V9.87375C11.8904 10.4083 11.7629 10.836 11.5079 11.1568C11.253 11.4775 10.9445 11.7119 10.5827 11.8599V12.0573C10.9034 12.0738 11.1543 12.1848 11.3352 12.3904C11.5244 12.596 11.6189 12.8715 11.6189 13.217V16.0667H10.1386V13.4267C10.1386 13.2211 10.081 13.0566 9.96584 12.9332C9.85893 12.8016 9.6821 12.7358 9.43537 12.7358H6.99273V16.0667H5.5ZM6.99273 11.3911H9.0406C9.46827 11.3911 9.80136 11.2801 10.0399 11.0581C10.2866 10.8278 10.41 10.5235 10.41 10.1452V10.0341C10.41 9.64758 10.2907 9.34328 10.0522 9.12122C9.81369 8.89093 9.47649 8.77579 9.0406 8.77579H6.99273V11.3911Z" fill="white"/>
<path d="M16.2678 16.2394C15.6099 16.2394 15.0259 16.1243 14.516 15.894C14.0143 15.6555 13.6196 15.3142 13.3317 14.8701C13.0439 14.4259 12.8999 13.8831 12.8999 13.2416V12.9209H14.368V13.2416C14.368 13.8091 14.5407 14.2327 14.8861 14.5123C15.2315 14.7919 15.6921 14.9317 16.2678 14.9317C16.8517 14.9317 17.2918 14.8125 17.5878 14.574C17.8839 14.3355 18.0319 14.0271 18.0319 13.6487C18.0319 13.3938 17.962 13.1882 17.8222 13.0319C17.6906 12.8674 17.4932 12.7358 17.2301 12.6371C16.9669 12.5385 16.6461 12.4439 16.2678 12.3534L15.8977 12.2794C15.3302 12.1478 14.8368 11.9833 14.4173 11.7859C14.0061 11.5803 13.6854 11.3171 13.4551 10.9964C13.233 10.6756 13.122 10.2562 13.122 9.73805C13.122 9.21991 13.2454 8.77579 13.4921 8.4057C13.747 8.0356 14.1007 7.75186 14.553 7.55447C15.0054 7.35709 15.5358 7.25839 16.1444 7.25839C16.7531 7.25839 17.2959 7.3612 17.7729 7.56681C18.2499 7.77242 18.6241 8.08083 18.8955 8.49205C19.1669 8.90327 19.3026 9.4173 19.3026 10.0341V10.4412H17.8469V10.0341C17.8469 9.68048 17.777 9.39673 17.6372 9.1829C17.4974 8.96907 17.3 8.8128 17.045 8.71411C16.7901 8.61542 16.4899 8.56607 16.1444 8.56607C15.6263 8.56607 15.2357 8.66476 14.9725 8.86215C14.7175 9.05953 14.59 9.33916 14.59 9.70104C14.59 9.93132 14.6476 10.1287 14.7628 10.2932C14.8861 10.4495 15.0629 10.581 15.2932 10.688C15.5317 10.7867 15.8278 10.873 16.1815 10.947L16.5516 11.0334C17.1437 11.165 17.6577 11.3336 18.0936 11.5392C18.5295 11.7366 18.8708 11.9998 19.1176 12.3287C19.3725 12.6577 19.5 13.0854 19.5 13.6117C19.5 14.1299 19.3643 14.5863 19.0929 14.9811C18.8297 15.3759 18.4555 15.6843 17.9703 15.9063C17.4932 16.1284 16.9258 16.2394 16.2678 16.2394ZM15.5893 17.4978V6.00006H16.934V17.4978H15.5893Z" fill="white"/>
</svg>
