<svg width="558" height="120" viewBox="0 0 558 120" fill="none" xmlns="http://www.w3.org/2000/svg">
<path d="M552.482 83.2688L547.175 52.1379C547.162 52.0694 547.152 52.0008 547.138 51.9237C546.492 48.6495 545.138 45.58 543.181 42.9583C541.223 40.3367 538.717 38.2352 535.863 36.8204C537.244 36.0763 538.472 35.0502 539.48 33.801C541.878 30.8352 542.85 26.8037 542.163 22.7294L539.82 9.00504C538.948 3.88415 534.636 0.0177399 529.793 0.0177399H491.754C486.586 -0.216003 481.784 1.86624 478.202 5.90204C477.554 6.63468 476.961 7.41899 476.428 8.24805C472.062 3.26441 465.756 0.31367 459.872 0.0241732C459.761 0.0241732 459.653 0.0241732 459.542 0.0241732H415.351C414.009 0.0179612 412.684 0.310851 411.457 0.883839C410.231 1.45683 409.131 2.29712 408.23 3.35019C407.818 3.84124 407.453 4.37502 407.141 4.94348C403.321 2.02039 398.785 0.334159 394.081 0.088506H393.788H360.499C355.698 -0.0733442 351.011 1.6646 347.347 4.96493C346.456 3.44693 345.213 2.19664 343.736 1.33326C342.261 0.469877 340.599 0.022149 338.915 0.0327509H283.977C282.12 0.0356785 280.3 0.588992 278.725 1.63035C277.184 0.650898 275.422 0.13221 273.625 0.12925H235.543C235.34 0.12925 235.123 0.12925 234.913 0.12925C228.839 0.12925 223.195 3.08857 219.357 7.73553C219.337 7.71195 219.318 7.6862 219.298 7.66047C215.615 3.22794 209.717 0.347982 203.903 0.154983C203.822 0.154983 203.744 0.154983 203.663 0.154983H159.463C157.525 0.157336 155.629 0.75947 154.008 1.88768C152.425 0.744664 150.557 0.126666 148.642 0.112095H131.925C129.803 0.12385 127.71 0.637293 125.799 1.6151C123.888 2.59291 122.206 4.0105 120.876 5.76481C120.613 5.36312 120.329 4.9779 120.025 4.61111C118.818 3.18001 117.338 2.0382 115.683 1.26171C114.028 0.485214 112.236 0.091852 110.427 0.107806H93.7029C88.7289 0.116383 84.4481 4.02568 83.7409 9.21949L79.9892 36.7326C78.5558 35.521 76.9711 34.5265 75.28 33.7775C77.7389 31.4611 79.3672 28.3129 79.8883 24.8674L81.7853 11.8507C82.0015 10.433 81.9235 8.98217 81.5567 7.59977C81.1897 6.21736 80.5431 4.93663 79.6614 3.84711C78.7799 2.75757 77.6848 1.88553 76.4527 1.29189C75.2208 0.698243 73.8813 0.397329 72.5284 0.41017L38.7775 0.427326H38.6825C27.8476 0.577436 17.6837 9.9207 15.9766 21.2776L5.29938 83.9185C5.28726 83.9849 5.27714 84.0515 5.26705 84.1178C4.35591 90.3882 6.26304 96.712 10.3743 101.046C11.9371 102.699 13.7921 104.007 15.8329 104.896C17.8736 105.785 20.0598 106.238 22.2658 106.227C23.1278 106.227 23.9886 106.161 24.8416 106.027C36.4985 104.934 48.2951 103.883 59.9116 102.929C66.9422 102.5 73.5465 98.5049 77.8255 92.732C79.5075 95.0617 81.6745 96.9468 84.157 98.24C86.6395 99.533 89.37 100.199 92.1352 100.186C92.8493 100.186 93.563 100.143 94.2726 100.057C105.956 99.2662 117.803 98.5307 129.484 97.8679C129.575 97.8679 129.666 97.855 129.757 97.8465C134.83 97.3204 139.661 95.2886 143.697 91.9837C144.023 92.5508 144.405 93.0804 144.834 93.5641C145.743 94.5693 146.835 95.367 148.044 95.9082C149.254 96.4495 150.554 96.7232 151.867 96.712C152.016 96.712 152.168 96.712 152.319 96.7013C160.011 96.3412 167.047 96.0366 173.831 95.7749C175.286 95.7267 176.714 95.3517 178.023 94.675C179.331 93.9982 180.489 93.0349 181.422 91.8485C181.492 91.9321 181.563 92.0136 181.636 92.0931C182.592 93.1323 183.743 93.9469 185.015 94.4839C186.287 95.0211 187.65 95.2687 189.018 95.2111C196.669 94.9558 203.707 94.7499 210.536 94.5677C212.47 94.5193 214.354 93.8919 215.968 92.7578C217.544 93.7761 219.351 94.3146 221.195 94.3146H221.396C234.856 94.0423 248.49 93.8536 261.923 93.7549H262.141C272.708 93.3453 283.435 85.6941 283.178 73.5845L283.242 46.9228C283.242 46.8348 283.242 46.7448 283.242 46.6568C283.08 41.2166 280.413 36.4773 276.337 33.5051C277.235 33.0096 278.079 32.4091 278.852 31.7144C281.34 33.8869 284.467 35.0698 287.688 35.0598H290.947L291.69 83.9528C291.772 89.4553 296.088 93.8021 301.51 93.8471C309.47 93.9222 317.569 94.0251 325.574 94.1559H325.74C327.06 94.1637 328.368 93.8923 329.589 93.3577C330.808 92.8231 331.915 92.0358 332.847 91.0422C333.721 90.1043 334.404 88.9851 334.853 87.7543C335.304 86.5233 335.51 85.2073 335.458 83.8883L333.653 35.21L336.174 35.2227C337.93 35.2297 339.672 34.8864 341.309 34.2107L344.054 85.0872C344.341 90.3517 348.633 94.5891 353.825 94.737C361.549 94.9514 368.59 95.1766 375.343 95.4212C376.714 95.4797 378.082 95.2316 379.358 94.6929C380.634 94.1543 381.789 93.3372 382.749 92.2946C382.815 92.2195 382.884 92.1424 382.95 92.0651C383.879 93.2524 385.036 94.2175 386.341 94.8966C387.648 95.576 389.074 95.9542 390.526 96.0066C398.205 96.3283 405.241 96.65 412.036 96.9843C412.194 96.9931 412.354 96.9972 412.514 96.9972C414.395 97.0022 416.237 96.4303 417.819 95.3504C419.468 96.6445 421.44 97.3955 423.487 97.5098C431.166 97.9216 438.194 98.3289 444.989 98.7493C446.388 98.851 447.793 98.6231 449.102 98.0819C450.409 97.5408 451.588 96.6996 452.557 95.6184C452.87 95.2609 453.16 94.8781 453.42 94.4734C456.108 97.7146 459.893 99.6966 463.95 99.9866C469.822 100.39 475.775 100.819 481.644 101.263C481.884 101.28 482.122 101.288 482.36 101.288C484.071 101.293 485.752 100.81 487.227 99.8901C488.839 101.184 490.769 101.96 492.786 102.125C506.186 103.197 519.788 104.389 533.21 105.646C533.264 105.646 533.317 105.65 533.372 105.659C533.807 105.691 534.242 105.706 534.673 105.706C540.329 105.706 545.665 103.133 549.159 98.67C552.515 94.3854 553.717 88.7905 552.482 83.2688Z" fill="#3D1989"/>
<path d="M557.421 91.1761L552.143 60.7838C552.122 60.6744 552.101 60.5735 552.077 60.4453C550.957 54.9105 548.161 49.8952 544.101 46.1342C546.913 42.1396 548.017 37.054 547.131 31.9599L544.792 18.5044C543.489 11.0178 537.042 5.37285 529.798 5.37285H491.852C486.017 5.10876 480.316 7.24183 475.977 11.3121C471.331 7.79693 465.689 5.65037 460.087 5.38547C459.9 5.38547 459.715 5.37285 459.531 5.37285H415.348C412.014 5.36759 408.777 6.54354 406.17 8.70726C402.477 6.75301 398.423 5.64133 394.283 5.44644C394.117 5.44644 393.951 5.44644 393.787 5.44644H360.586C356.212 5.29808 351.884 6.38805 348.06 8.60004C345.432 6.51211 342.217 5.37846 338.912 5.37285H283.976C282.168 5.373 280.375 5.71568 278.685 6.3841C277.066 5.77517 275.357 5.46291 273.634 5.46114H235.616C229.722 5.30541 223.958 7.27522 219.301 11.0367C214.861 7.64474 209.55 5.70656 204.048 5.46957C203.917 5.46957 203.783 5.46957 203.644 5.46957H159.462C157.606 5.47044 155.766 5.83121 154.036 6.53338C152.318 5.829 150.488 5.46809 148.642 5.46957H131.924C128.033 5.48632 124.237 6.72547 121.034 9.02472C117.947 6.70001 114.231 5.4545 110.42 5.46745H93.7022C91.6811 5.47125 89.6809 5.89582 87.8198 6.71617C85.9589 7.53649 84.2742 8.73602 82.8653 10.2441C81.516 8.81772 79.9066 7.68612 78.1313 6.91568C76.3562 6.14526 74.4509 5.75152 72.5277 5.75759L38.7889 5.77231H38.6272C25.2531 5.95732 13.1314 16.8498 11.004 30.5891L0.334938 91.9435C0.316756 92.0485 0.300593 92.1536 0.28241 92.2735C-0.875209 100.078 1.56933 107.974 6.82003 113.396C8.85019 115.501 11.2596 117.167 13.91 118.3C16.5604 119.434 19.3997 120.011 22.2651 120C23.32 120 24.3738 119.924 25.4188 119.773C37.0312 118.703 48.7509 117.687 60.2564 116.754C66.6445 116.357 72.9437 113.548 77.9157 109.011C81.9758 112.31 86.9832 114.094 92.1345 114.078C92.9949 114.078 93.8548 114.029 94.7103 113.933C106.343 113.161 118.131 112.444 129.754 111.799C129.91 111.799 130.063 111.778 130.215 111.763C134.696 111.322 139.037 109.902 142.954 107.596C145.528 109.594 148.655 110.671 151.866 110.667C152.086 110.667 152.308 110.667 152.541 110.653C160.183 110.3 167.208 110.003 174.018 109.744C176.695 109.644 179.302 108.824 181.584 107.365C183.916 108.658 186.533 109.293 189.174 109.206C196.807 108.958 203.834 108.754 210.654 108.575C212.517 108.53 214.355 108.132 216.078 107.4C217.719 108.016 219.448 108.33 221.192 108.33H221.498C234.933 108.062 248.549 107.878 261.961 107.781H262.326C272.465 107.396 282.753 101.501 286.626 91.7458L286.645 92.9967C286.77 101.268 293.281 107.8 301.466 107.865C309.434 107.938 317.519 108.042 325.483 108.168H325.74C327.729 108.172 329.701 107.766 331.539 106.972C333.377 106.178 335.045 105.012 336.446 103.542C337.905 102.001 339.019 100.145 339.712 98.1055C341.632 104.131 347.186 108.557 353.689 108.733C361.411 108.943 368.437 109.164 375.182 109.404C377.818 109.495 380.434 108.865 382.764 107.577C385.042 109.044 387.647 109.871 390.326 109.978C398.003 110.291 405.035 110.609 411.799 110.934C413.775 111.031 415.75 110.72 417.609 110.02C419.379 110.861 421.287 111.345 423.23 111.447C430.874 111.851 437.896 112.246 444.69 112.66C447.815 112.863 450.917 112.026 453.553 110.27C456.548 112.372 460.025 113.612 463.63 113.865C469.464 114.258 475.405 114.679 481.297 115.114C483.18 115.257 485.074 115.021 486.871 114.418C488.608 115.284 490.487 115.806 492.408 115.957C505.789 117.008 519.368 118.175 532.803 119.407L533.045 119.426C533.589 119.464 534.137 119.483 534.676 119.483C541.887 119.483 548.579 116.279 553.043 110.69C557.378 105.262 558.97 98.1581 557.421 91.1761Z" fill="#3D1989"/>
<path d="M347.878 20.2708C349.041 41.7281 350.202 63.1858 351.362 84.6444C351.431 85.8903 352.621 86.9326 354.022 86.9713C361.213 87.1728 368.403 87.4015 375.594 87.6574C376.993 87.709 378.055 86.7267 377.963 85.4658L376.502 65.4904C376.455 64.8599 376.976 64.3646 377.666 64.3839C380.657 64.4633 382.154 64.504 385.141 64.5983C385.83 64.6177 386.429 65.1473 386.481 65.78C387.018 72.472 387.558 79.1633 388.095 85.8538C388.2 87.1213 389.418 88.1935 390.818 88.2514C398.006 88.5517 405.192 88.8784 412.381 89.2315C413.782 89.3023 414.803 88.3158 414.689 87.0313L408.177 20.6568C407.632 13.0913 400.328 8.12908 393.786 7.84816H360.343C353.719 7.50504 347.837 13.2821 347.878 20.2708ZM375.001 44.9446C374.64 39.9996 374.279 35.0538 373.913 30.1072C373.823 28.8463 374.833 27.8341 376.172 27.847L381.022 27.8964C382.361 27.9093 383.529 28.9494 383.631 30.2166L384.825 45.1269C384.879 45.7703 384.37 46.2634 383.689 46.2505C380.737 46.1907 379.262 46.1627 376.31 46.109C375.633 46.1048 375.046 45.5751 375.001 44.9446Z" fill="white"/>
<path d="M52.2141 42.8861L49.8684 58.0256C49.6522 59.4196 50.5836 60.4896 51.9513 60.4167L54.115 60.3031C55.4827 60.2324 56.4202 61.2959 56.2102 62.6813C55.6809 66.1832 55.416 67.9329 54.8847 71.4348C54.6828 72.8202 53.3877 74.0082 52.01 74.1025C48.2644 74.3491 46.3916 74.4735 42.646 74.7286C41.2682 74.8229 40.3307 73.7616 40.5529 72.357L46.7955 32.9616C46.9287 32.2567 47.2787 31.6188 47.7907 31.1482C48.3028 30.6778 48.9477 30.4013 49.6239 30.3624C54.9791 30.2382 60.3349 30.1159 65.6913 29.9958C69.0389 29.9228 72.1561 27.09 72.6573 23.6654C73.4149 18.4609 73.7946 15.8662 74.5461 10.653C74.7481 9.28274 73.8371 8.17407 72.5258 8.17407L38.7872 8.18694C31.4618 8.29202 24.322 14.8347 23.1947 22.5696L12.4954 85.2986C11.4388 92.5682 16.5662 99.5848 23.9644 98.3153C35.7791 97.2044 47.5977 96.1595 59.4203 95.1801C66.7478 94.7662 74.035 88.3072 75.2431 80.5766L79.1038 52.9756C80.5786 45.44 74.0289 39.8945 67.56 39.8816C62.5537 40.0382 60.0507 40.1174 55.0464 40.2827C53.699 40.3277 52.4301 41.4943 52.2141 42.8861Z" fill="white"/>
<path d="M459.535 7.78003H415.347C414.027 7.78003 413.065 8.8265 413.197 10.1196C415.827 35.8386 418.452 61.5573 421.076 87.2763C421.21 88.563 422.451 89.6737 423.852 89.751C431.038 90.1368 438.223 90.5509 445.405 90.9925C446.804 91.0805 447.813 90.0855 447.657 88.7687L444.683 63.7584C444.607 63.0999 445.087 62.5896 445.784 62.6195L449.512 62.7783C452.257 62.8984 454.749 65.1372 455.082 67.7984L457.33 85.8116C457.744 89.1268 460.916 92.0027 464.416 92.2449C470.33 92.6495 476.243 93.0784 482.153 93.5316C483.554 93.6366 484.533 92.6244 484.344 91.2691C483.084 82.2625 481.825 73.2609 480.565 64.2643C480.019 59.954 475.951 55.663 472.142 54.5373C472.053 54.5115 471.973 54.46 471.912 54.3888C471.848 54.3176 471.807 54.2294 471.789 54.1342C471.776 54.0496 471.795 53.9634 471.84 53.8933C471.887 53.8232 471.957 53.7749 472.035 53.7588C475.978 52.7424 478.442 49.0924 477.818 44.6235C476.729 36.8507 475.639 29.0771 474.552 21.3028C473.678 13.5614 466.432 8.1124 459.535 7.78003ZM451.641 40.1909C451.889 42.1788 450.445 43.7421 448.408 43.6843L443.507 43.5449C443.181 43.5395 442.867 43.4146 442.617 43.1914C442.369 42.9682 442.2 42.6605 442.139 42.3205C441.546 37.3174 441.246 34.8148 440.651 29.8141C440.576 29.1557 441.056 28.6325 441.722 28.6432L447.784 28.7441C449.124 28.7676 450.345 29.8613 450.509 31.1864L451.641 40.1909Z" fill="white"/>
<path d="M509.411 29.9922C516.279 30.1551 523.15 30.3224 530.018 30.4938C533.364 30.5796 535.58 27.7254 534.964 24.1163L532.623 10.392C532.379 8.9488 531.112 7.77793 529.797 7.77793H491.571C484.502 7.36406 479.624 14.3892 480.381 21.3543C481.794 31.2302 483.207 41.1044 484.623 50.9776C485.632 56.7568 490.505 60.9342 495.945 61.3524C501.726 61.6496 507.505 61.9606 513.284 62.2851C514.653 62.3624 515.941 63.5718 516.162 64.9657C516.606 67.7533 516.827 69.1601 517.272 71.9564C517.494 73.3589 516.556 74.4204 515.178 74.3283C508.106 73.855 501.035 73.3975 493.963 72.9557C490.517 72.7413 488.117 75.3404 488.607 78.7458C489.348 83.9289 489.719 86.5215 490.464 91.7045C490.665 93.0685 491.949 94.2628 493.348 94.3744C506.859 95.4637 520.364 96.6403 533.86 97.9041C540.659 98.3779 547.195 92.6889 545.328 84.881L539.982 53.5165C538.829 47.6665 534.084 43.0817 528.426 42.6785C522.725 42.4599 517.024 42.2455 511.323 42.0352C510.644 41.9908 509.998 41.71 509.483 41.2363C508.97 40.7625 508.617 40.1224 508.482 39.4146L507.39 32.4518C507.163 31.0686 508.071 29.9599 509.411 29.9922Z" fill="white"/>
<path d="M338.916 7.78003H283.979C282.66 7.78003 281.593 8.77933 281.595 10.0124C281.605 14.6958 281.61 17.0397 281.618 21.7231C281.618 24.8047 284.346 27.2986 287.696 27.2986C290.907 27.2986 292.511 27.2986 295.722 27.2986C297.061 27.2986 298.163 28.3023 298.181 29.5352L299.004 83.8322C299.02 85.0652 300.173 86.073 301.575 86.0859C309.612 86.1617 317.652 86.2645 325.692 86.3947C327.093 86.4183 328.192 85.4362 328.147 84.1967C327.474 66.0162 326.802 47.8365 326.127 29.6575C326.081 28.418 327.138 27.4187 328.471 27.4251L336.214 27.4681C339.562 27.4873 342.155 24.9805 341.999 21.8688L341.412 10.0338C341.355 8.79006 340.235 7.78003 338.916 7.78003Z" fill="white"/>
<path d="M125.267 13.8051C123.203 31.7826 121.137 49.76 119.071 67.7375C118.92 69.0456 117.679 70.1584 116.299 70.2229L111.303 70.4587C109.923 70.5251 108.933 69.5109 109.093 68.1921C111.286 50.0789 113.478 31.9647 115.671 13.8501C116.075 10.552 113.719 7.88007 110.418 7.88007H93.7024C92.3833 7.88007 91.1629 8.97157 90.979 10.3204C87.8181 33.5102 84.6529 56.7001 81.4838 79.8899C80.7342 87.2195 86.5891 93.2776 93.5914 92.3277C105.419 91.5255 117.251 90.7901 129.086 90.1209C135.771 89.4776 143.678 84.464 144.29 76.5746L150.802 10.2046C150.929 8.91796 149.961 7.87793 148.642 7.87793H131.924C128.623 7.87793 125.643 10.5327 125.267 13.8051Z" fill="white"/>
<path d="M156.855 10.196C154.463 35.7076 152.071 61.2226 149.677 86.7414C149.556 88.0281 150.594 89.006 151.996 88.9394C159.182 88.602 166.37 88.2925 173.561 88.0108C174.963 87.9573 176.175 86.8894 176.272 85.6263C177.701 66.7553 179.129 47.8893 180.555 29.0283C180.602 28.3849 181.184 27.8789 181.854 27.8726L187.915 27.8145C189.255 27.8019 190.271 28.8119 190.184 30.0684C188.921 48.4704 187.661 66.871 186.404 85.2704C186.319 86.5269 187.384 87.507 188.786 87.4598C195.975 87.2209 203.166 87.0065 210.358 86.8165C211.762 86.7822 212.947 85.7443 213.007 84.5004C214.065 63.0863 215.124 41.6733 216.178 20.2619C216.829 12.8722 209.761 8.07944 203.653 7.86499H159.461C158.142 7.87571 156.974 8.91577 156.855 10.196Z" fill="white"/>
<path d="M275.989 21.8165C275.997 17.1309 276.003 14.7892 276.015 10.1036C276.015 8.8706 274.951 7.87343 273.632 7.87343H235.413C228.692 7.58823 222.412 13.2088 221.717 20.2489L220.505 47.2494C220.394 52.7541 225.209 56.211 230.021 56.123C235.813 56.0544 241.604 55.9988 247.395 55.9557C248.766 55.945 249.853 56.938 249.82 58.1732C249.765 60.6328 249.736 61.8616 249.683 64.3212C249.654 65.5563 248.511 66.5664 247.131 66.5792C240.047 66.6478 232.961 66.7336 225.873 66.8367C222.421 66.8902 219.508 69.457 219.368 72.5622C219.155 77.28 219.046 79.6495 218.835 84.3759C218.777 85.6176 219.869 86.5996 221.272 86.5697C234.81 86.2952 248.345 86.1078 261.879 86.0078C268.084 85.7676 276.089 81.4122 275.87 73.686C275.89 64.7608 275.911 55.8372 275.933 46.9148C275.771 41.4617 270.998 37.9918 266.166 38.0025C260.461 38.0141 254.752 38.0327 249.041 38.0584C247.693 38.0584 246.618 37.0698 246.651 35.8325C246.714 33.3729 246.747 32.1419 246.807 29.6823C246.839 28.4471 247.951 27.4413 249.291 27.4371C256.159 27.4199 263.034 27.4063 269.912 27.3963C273.258 27.3941 275.981 24.8958 275.989 21.8165Z" fill="white"/>
</svg>
